<?xml version="1.0" encoding="utf-8"?>
<!-- Generator: Adobe Illustrator 18.0.0, SVG Export Plug-In . SVG Version: 6.00 Build 0)  -->
<!DOCTYPE svg PUBLIC "-//W3C//DTD SVG 1.1//EN" "http://www.w3.org/Graphics/SVG/1.1/DTD/svg11.dtd" [
	<!ENTITY ns_extend "http://ns.adobe.com/Extensibility/1.0/">
	<!ENTITY ns_ai "http://ns.adobe.com/AdobeIllustrator/10.0/">
	<!ENTITY ns_graphs "http://ns.adobe.com/Graphs/1.0/">
	<!ENTITY ns_vars "http://ns.adobe.com/Variables/1.0/">
	<!ENTITY ns_imrep "http://ns.adobe.com/ImageReplacement/1.0/">
	<!ENTITY ns_sfw "http://ns.adobe.com/SaveForWeb/1.0/">
	<!ENTITY ns_custom "http://ns.adobe.com/GenericCustomNamespace/1.0/">
	<!ENTITY ns_adobe_xpath "http://ns.adobe.com/XPath/1.0/">
]>
<svg version="1.1" id="Layer_1" xmlns:x="&ns_extend;" xmlns:i="&ns_ai;" xmlns:graph="&ns_graphs;"
	 xmlns="http://www.w3.org/2000/svg" xmlns:xlink="http://www.w3.org/1999/xlink" x="0px" y="0px"
	 viewBox="0 0 24.9139862 24.9139919" enable-background="new 0 0 24.9139862 24.9139919" xml:space="preserve">
<metadata>
	<sfw  xmlns="&ns_sfw;">
		<slices></slices>
		<sliceSourceBounds  height="24.9139919" width="24.9139862" x="168.0806122" y="-229.2596283" bottomLeftOrigin="true">
			</sliceSourceBounds>
	</sfw>
</metadata>
<g>
	<path fill-rule="evenodd" clip-rule="evenodd" fill="#656D7F" d="M3.1976273-0.0000168h18.5187416
		c1.7586956,0,3.1976261,1.3014268,3.1976261,3.1976268v18.5187359c0,1.8961906-1.4389305,3.197628-3.1976261,3.197628H3.1976273
		c-1.7586852,0-3.1976173-1.3014374-3.1976173-3.197628V3.1976101C0.00001,1.30141,1.4389421-0.0000168,3.1976273-0.0000168
		L3.1976273-0.0000168z M18.1490993,2.7678511c-0.6171494,0-1.1217308,0.5045865-1.1217308,1.1217163v2.6853704
		c0,0.6171398,0.5045815,1.121736,1.1217308,1.121736h2.8164654c0.6158657,0,1.1204472-0.5045962,1.1204472-1.121736V3.8895674
		c0-0.6171298-0.5045815-1.1217163-1.1204472-1.1217163H18.1490993z M22.0984879,10.5358458h-2.1932545
		c0.2072048,0.676939,0.3197632,1.3951178,0.3197632,2.137291c0,4.1444445-3.4675102,7.5041971-7.7443361,7.5041971
		c-4.2768164,0-7.7443314-3.3597527-7.7443314-7.5041971c0-0.7421732,0.1125631-1.4603519,0.3197627-2.137291H2.7691562v10.5246611
		c0,0.5445557,0.444787,0.9906311,0.9906223,0.9906311h17.3484039c0.5458298,0,0.9903049-0.4460754,0.9903049-0.9906311V10.5358458z
		 M12.4806604,7.5543671c-2.7627449,0-5.0036407,2.1708794-5.0036407,4.8488922s2.2408957,4.8488827,5.0036407,4.8488827
		c2.7630758,0,5.0039721-2.1708698,5.0039721-4.8488827S15.2450151,7.5543671,12.4806604,7.5543671L12.4806604,7.5543671z
		 M12.4806604,7.5543671"/>
</g>
</svg>
