<?xml version="1.0" encoding="utf-8"?>
<svg version="1.1" id="Layer_1" xmlns:x="&ns_extend;" xmlns:i="&ns_ai;" xmlns:graph="&ns_graphs;"
	 xmlns="http://www.w3.org/2000/svg" xmlns:xlink="http://www.w3.org/1999/xlink" x="0px" y="0px"
	 viewBox="0 0 114.8882904 80.4619141" enable-background="new 0 0 114.8882904 80.4619141" xml:space="preserve">
<metadata>
	<sfw  xmlns="&ns_sfw;">
		<slices></slices>
		<sliceSourceBounds  height="80.4619141" width="114.8882904" x="123.6757812" y="-257.655426" bottomLeftOrigin="true">
			</sliceSourceBounds>
	</sfw>
</metadata>
<g>
	<polygon fill="#636363" points="0.048419,0.0000985 0.048419,20.7827625 15.4784107,20.7827625 15.4784107,0.0000985
		12.344943,0.0000985 12.344943,17.9868031 9.3220797,17.9868031 9.3220797,0.0000985 6.188611,0.0000985 6.188611,17.9868031
		3.1657474,17.9868031 3.1657474,0.0000985 	"/>
	<polygon fill="#636363" points="24.44067,14.7887764 29.4411182,20.8311806 33.6174927,20.8311806 26.473793,12.7765398
		26.5065479,12.7437859 33.3350487,5.9475641 28.9089832,5.9475641 22.8437939,12.3702002 22.8437939,5.9475641
		19.6134872,5.9475641 19.6134872,20.8311806 22.8437939,20.8311806 22.8437939,16.3429317 22.8575592,16.3286896
		24.4060173,14.7470036 	"/>
	<path fill="#636363" d="M47.5431747,7.7737193c-0.6816635-0.6930561-1.5114326-1.2351584-2.4665222-1.6125422
		c-0.9546127-0.3764338-2.0354958-0.5672617-3.2127419-0.5672617c-1.1558838,0-2.2263222,0.1908278-3.1809387,0.5672617
		c-0.9550858,0.3769088-1.7848549,0.919486-2.4665184,1.6125422c-0.6830864,0.6930566-1.2147484,1.5308948-1.5807381,2.4902549
		c-0.3659897,0.9607849-0.5515976,2.017458-0.5515976,3.1410637c0,1.1563587,0.1856079,2.2215767,0.5511246,3.1657476
		c0.3659897,0.9432201,0.8981247,1.767767,1.5807381,2.4503803c0.6816597,0.6821384,1.5119057,1.2223415,2.4669914,1.6044712
		c0.9550896,0.3816566,2.025528,0.5753326,3.1809387,0.5753326c1.1767731,0,2.2576561-0.193676,3.2127419-0.5753326
		c0.9555626-0.3826046,1.7853317-0.9223328,2.4669952-1.6044712c0.6821404-0.6816635,1.2137985-1.5062103,1.5807381-2.4503803
		c0.3655167-0.944171,0.5511208-2.0093889,0.5511208-3.1657476c0-1.1236057-0.1856041-2.1802788-0.5515938-3.1410637
		C48.7574463,9.3036642,48.2253113,8.465826,47.5431747,7.7737193z M46.1447182,15.3508167
		c-0.209816,0.581028-0.5183678,1.1003456-0.9175873,1.5432358c-0.3987427,0.4419422-0.8886299,0.7894192-1.4558907,1.032938
		c-0.5663147,0.2425709-1.2081032,0.3650417-1.9073296,0.3650417c-0.710144,0-1.3547821-0.1224709-1.9168205-0.3650417
		c-0.5620422-0.2439938-1.0438576-0.5919456-1.4312096-1.0334129c-0.387825-0.4419403-0.6911583-0.9612589-0.9009743-1.5427608
		c-0.209816-0.5800791-0.3161469-1.2346849-0.3161469-1.9457788c0-0.6783409,0.1063309-1.3300982,0.3156738-1.9358101
		c0.209816-0.6090355,0.5136223-1.1368971,0.9019203-1.5683956c0.387352-0.4310236,0.8686943-0.7780266,1.4302597-1.0319891
		c0.5610924-0.2539625,1.2062035-0.3821306,1.9172974-0.3821306c0.7001762,0,1.3424416,0.1281681,1.9082794,0.3821306
		c0.5663109,0.2534876,1.0557213,0.6004906,1.4544678,1.0310392c0.3996925,0.4329233,0.7087212,0.9607849,0.9185371,1.5693455
		c0.2093391,0.6061869,0.31567,1.2574692,0.31567,1.9358101C46.460865,14.1161318,46.3545341,14.7707376,46.1447182,15.3508167z"/>
	<path fill="#636363" d="M66.4669266,20.8311806V5.9475641h-12.216301v10.4960032c0,1.226614-0.5947914,1.848465-1.767765,1.848465
		c-0.3023834,0-0.5520706-0.0218353-0.742424-0.065033c-0.1670952-0.0379753-0.3256416-0.0939903-0.4727974-0.1666183
		l-0.4039688,2.7632046c0.4101372,0.2501659,1.057148,0.3773842,1.9244194,0.3773842
		c0.646534,0,1.2607918-0.088768,1.8261566-0.2634563c0.5644112-0.1737385,1.0614166-0.4490623,1.4767761-0.8179016
		c0.4158363-0.3674145,0.7547684-0.8615723,1.0087318-1.4687099c0.2530098-0.6080837,0.3816528-1.3505096,0.3816528-2.2073345
		V8.8560266h5.7547417v11.9751539H66.4669266z"/>
	<path fill="#636363" d="M69.882843,18.567831c0.2795944,0.5748558,0.6569748,1.0642681,1.1212311,1.4554176
		c0.4637756,0.3897247,1.0229645,0.6868858,1.6628571,0.8824596c0.6408386,0.1955757,1.3310471,0.2952614,2.0511627,0.2952614
		c1.1668015,0,2.2714157-0.225956,3.2834702-0.6707458c1.009201-0.44384,1.783905-1.0761356,2.3013306-1.8788471l0.089241-0.1390858
		v2.3188896h3.1985016v-9.997571c0-0.9731264-0.1875076-1.8009968-0.5568237-2.4598742
		c-0.3688354-0.6588783-0.8696365-1.2019305-1.4876938-1.6149158c-0.6199493-0.4125109-1.3282013-0.7129931-2.105751-0.8929033
		c-0.7804031-0.1803842-1.5854874-0.2720008-2.3919907-0.2720008c-1.2437057,0-2.4423141,0.1642451-3.5630722,0.4879875
		c-1.1074677,0.3208947-2.1579666,0.7628365-3.123497,1.314908l1.3054123,2.5173125
		c0.8226471-0.4694738,1.7041626-0.8326168,2.6198502-1.0804081c0.9332504-0.2515888,1.8622284-0.379282,2.7613068-0.379282
		c0.9902115,0,1.8019409,0.1969986,2.413353,0.5862494c0.6175766,0.3930483,0.9304047,0.9963875,0.9304047,1.7929268v0.6484346
		l-0.0531693-0.0052214c-0.4177322-0.0427227-0.8335648-0.0750017-1.2356339-0.0963631
		c-0.3982697-0.0213614-0.8895798-0.03228-1.4601593-0.03228c-1.0210724,0-2.0364456,0.1106043-3.0190735,0.3284903
		c-0.9816666,0.2174101-1.8641281,0.5482731-2.6226883,0.9835701c-0.7561951,0.4338713-1.3756714,0.9835691-1.8413467,1.6334286
		c-0.4633026,0.6479597-0.6982803,1.4145937-0.6982803,2.2785397C69.4617844,17.3222294,69.6037216,17.9934483,69.882843,18.567831z
		 M73.9319992,14.7607689c0.8340378-0.4305487,2.082489-0.6484346,3.711174-0.6484346
		c0.3432007,0,0.7433701,0.0052223,1.2228165,0.01614c0.4633026,0.0109177,0.9631577,0.0598116,1.4857941,0.145257
		l0.0403519,0.0066462v0.6038132c0,0.5098228-0.1291199,0.9835701-0.3845062,1.4079485
		c-0.2558594,0.4234276-0.6095123,0.7879944-1.0514526,1.0837307c-0.4414673,0.2962093-0.9569855,0.5307102-1.5318451,0.6973286
		c-0.5772247,0.1666183-1.2009811,0.2511139-1.8546371,0.2511139c-1.9305878,0-2.9094086-0.6489105-2.9094086-1.92869
		C72.6602859,15.7457638,73.0879898,15.195591,73.9319992,14.7607689z"/>
	<rect x="89.49823" y="12.5216312" fill="#636363" width="11.7211924" height="2.9934328"/>
	<path fill="#636363" d="M11.5602703,29.6752415c-0.3000078-0.347477-0.6555548-0.6446362-1.057148-0.8824596
		c-0.4015923-0.2378235-0.8406858-0.4167824-1.3049383-0.533083c-0.4637785-0.1158257-0.9304047-0.1751633-1.3865871-0.1751633
		c-1.4098473,0-2.618423,0.3033314-3.5910749,0.9009724c-0.974551,0.5985928-1.7886546,1.4013023-2.4200001,2.3872471
		c-0.6318203,0.9878407-1.0946488,2.1451511-1.3756689,3.4405956C0.1428835,36.1087952,0,37.4735451,0,38.8691521
		c0,1.39608,0.1428835,2.7584572,0.4248529,4.0486832c0.2814947,1.2897491,0.749545,2.452755,1.3918086,3.4562607
		c0.6413141,1.001133,1.4767791,1.8123894,2.4836092,2.4114571c1.0054064,0.597641,2.251483,0.9009705,3.7045274,0.9009705
		c1.0509768,0,1.9937229-0.1609192,2.8026047-0.4780197c0.8093567-0.3180428,1.5289955-0.7742271,2.138031-1.356678
		c0.6095095-0.5824547,1.1335735-1.2973442,1.5579519-2.1252136c0.419157-0.8188515,0.7604628-1.7421341,1.0144253-2.7442169
		l-2.5794983-0.9944916c-0.4381437,1.4449768-1.0281906,2.6122551-1.7544756,3.4709778
		c-0.7405262,0.8753395-1.8100157,1.3191795-3.179039,1.3191795c-0.9498668,0-1.7440329-0.2354469-2.3606629-0.7006493
		c-0.6137819-0.4633026-1.105092-1.0780334-1.4611144-1.8266296c-0.3536484-0.7457466-0.6066613-1.6021004-0.7514436-2.5448456
		c-0.1443074-0.9398994-0.2174106-1.8945122-0.2174106-2.8367844c0-0.9417953,0.0731032-1.8907127,0.2174106-2.8201675
		c0.1447823-0.9323044,0.403017-1.7862816,0.7675836-2.5377235c0.3659906-0.7533455,0.8577757-1.3699722,1.4615889-1.8332767
		c0.6057119-0.4652023,1.3941817-0.7011261,2.3440485-0.7011261c0.73388,0,1.379941,0.1590233,1.920145,0.4723225
		c0.5397291,0.3132992,0.9940138,0.7234383,1.3495607,1.2190208c0.3560219,0.4970055,0.6180544,1.0728111,0.7794504,1.7126999
		c0.1571245,0.6237526,0.2387724,1.2631683,0.2425699,1.9006844h2.9089365v-7.8438759H12.296524v2.7821922l-0.0954142-0.3417816
		C12.0748415,30.4257355,11.8593292,30.0208206,11.5602703,29.6752415z"/>
	<polygon fill="#636363" points="33.1380501,41.9712906 33.1380501,34.4331207 18.2862377,34.4331207 18.2862377,41.9712906
		21.1467552,41.9712906 21.1467552,37.3420563 24.1045856,37.3420563 24.1045856,46.4244156 20.793581,46.4244156
		20.793581,49.3172112 30.6625099,49.3172112 30.6625099,46.4244156 27.3353672,46.4244156 27.3353672,37.3420563
		30.2613926,37.3420563 30.2613926,41.9712906 	"/>
	<path fill="#636363" d="M39.1927986,55.6662712c1.2607918,0,2.3620872-0.2468452,3.2725525-0.7334061
		c0.9061928-0.4856148,1.6068459-1.3799438,2.0824928-2.6587715l6.4378242-17.8409729h-3.4638557l-3.8431396,11.4311523
		l-4.1507416-11.4311523h-3.3518257l5.704895,15.3355255l-0.007122,0.0175629l-0.5952682,1.4463997
		c-0.3707352,0.9156876-1.0723381,1.37994-2.0858116,1.37994c-0.3023834,0-0.6517601-0.0351257-1.0376854-0.104908
		c-0.3693161-0.0664558-0.781353-0.1822815-1.225666-0.3446274l-0.669796,2.9583054
		c0.5283356,0.1946259,1.0419579,0.3346596,1.5266228,0.4167824C38.2842293,55.6230736,38.7570267,55.6662712,39.1927986,55.6662712
		z"/>
	<path fill="#636363" d="M67.7187042,54.4444008v-8.0199852H65.275444V34.4331207h-9.4511986v3.3755608
		c0,1.3149071-0.0431976,2.4575005-0.128643,3.395977c-0.0859222,0.9432182-0.2406731,1.7554245-0.4604568,2.413826
		c-0.2212067,0.6626778-0.5302353,1.217598-0.9185371,1.6486206c-0.3821297,0.4253273-0.880558,0.8084068-1.4819984,1.1378479
		v8.0394478h2.8927956v-5.1271896h9.0818825v5.1271896H67.7187042z M62.0446587,46.4244156h-5.6973l0.1595001-0.0906677
		c0.6109314-0.3470039,1.0884781-0.8406868,1.4198151-1.4672852c0.3341866-0.6308708,0.5871964-1.3244019,0.751442-2.0616074
		c0.1642456-0.7362518,0.2691536-1.4990883,0.3118744-2.2666702c0.0427246-0.7642632,0.0645599-1.4611168,0.0645599-2.0706253
		v-1.3343697h2.9901085V46.4244156z"/>
	<polygon fill="#636363" points="84.5723038,49.3172112 84.5723038,34.4331207 80.4695129,34.4331207 74.4940338,44.8712082
		74.4940338,34.4331207 71.2637329,34.4331207 71.2637329,49.3172112 75.0451584,49.3172112 81.3420029,38.2843285
		81.3420029,49.3172112 	"/>
	<path fill="#636363" d="M102.5366974,49.3172112V34.4331207h-8.6470566c-1.7164993,0-3.0689087,0.3916245-4.0197296,1.1634789
		c-0.9484406,0.7680588-1.429306,1.9125481-1.429306,3.4011955s0.4699478,2.6226959,1.396553,3.3698654
		c0.9299316,0.7504959,2.250061,1.1416435,3.9243088,1.1630058L93.87397,43.532093l-0.0778503,0.0806961l-5.4827347,5.704422
		h4.3012238l5.2719727-5.7865448h1.4202881v5.7865448H102.5366974z M93.8573608,40.6222038
		c-0.6598282,0-1.1938629-0.1352882-1.5869064-0.4025421c-0.3977966-0.2710495-0.5995483-0.6925812-0.5995483-1.2536697
		c0-0.5397301,0.2017517-0.9508171,0.5995483-1.2218704c0.3925705-0.266777,0.9266052-0.4020653,1.5869064-0.4020653h5.4495087
		v3.2801476H93.8573608z"/>
	<polygon fill="#636363" points="9.9515257,80.4330597 9.9515257,56.798893 8.5492744,56.798893 2.4237976,60.5281067
		2.4237976,64.2217178 6.6671047,61.7466507 6.6671047,80.4330597 	"/>
	<polygon fill="#636363" points="21.1814079,80.4330597 21.1814079,56.798893 19.7786808,56.798893 13.6532049,60.5281067
		13.6532049,64.2217178 17.8969879,61.7466507 17.8969879,80.4330597 	"/>
	<path fill="#636363" d="M46.7181511,80.0926971V65.2086105H34.5032768v10.4960022
		c0,1.2270889-0.5947952,1.848938-1.7687187,1.848938c-0.3009567,0-0.5506477-0.0218353-0.742424-0.065506
		c-0.1680431-0.0384521-0.3265915-0.0939941-0.4727974-0.1661453l-0.4039669,2.7627335
		c0.4101372,0.2501602,1.0571499,0.3773804,1.9248943,0.3773804c0.6470108,0,1.2612648-0.088768,1.8261528-0.2629852
		c0.5629921-0.1732635,1.0599976-0.4485855,1.4763069-0.8179016c0.4158325-0.3683624,0.7552414-0.8625183,1.008728-1.4687042
		c0.2530136-0.6066666,0.3816566-1.3495636,0.3816566-2.2078094v-7.5870667h5.7552109v11.9751511H46.7181511z"/>
	<polygon fill="#636363" points="63.7611618,80.0926971 63.7611618,65.2086105 59.6583633,65.2086105 53.6828918,75.646698
		53.6828918,65.2086105 50.4521103,65.2086105 50.4521103,80.0926971 54.2335396,80.0926971 60.5303802,69.0598145
		60.5303802,80.0926971 	"/>
	<polygon fill="#636363" points="80.8032227,80.0926971 80.8032227,65.2086105 77.5729141,65.2086105 77.5729141,71.0117645
		70.7249527,71.0117645 70.7249527,65.2086105 67.4951172,65.2086105 67.4951172,80.0926971 70.7249527,80.0926971
		70.7249527,73.9040909 77.5729141,73.9040909 77.5729141,80.0926971 	"/>
	<polygon fill="#636363" points="97.8462296,80.0926971 97.8462296,65.2086105 93.7434311,65.2086105 87.7674866,75.646698
		87.7674866,65.2086105 84.536705,65.2086105 84.536705,80.0926971 88.3181305,80.0926971 94.615448,69.0598145
		94.615448,80.0926971 	"/>
	<path fill="#636363" d="M114.8882904,80.0926971V65.2086105h-8.6475372c-1.7164993,0-3.0689087,0.3916245-4.0197296,1.163475
		c-0.9484406,0.7680588-1.429306,1.9125519-1.429306,3.4011993c0,1.4881744,0.4699478,2.6222229,1.396553,3.3693924
		c0.9289856,0.7504959,2.249588,1.1416397,3.9243164,1.163475l0.1125031,0.0014267l-0.0778503,0.0806961l-5.4827423,5.704422
		h4.3012238l5.2719727-5.7865448h1.4202881v5.7865448H114.8882904z M106.2084732,71.3972168
		c-0.6603012,0-1.1943359-0.1352844-1.5869064-0.4020691c-0.3977966-0.2710495-0.5995407-0.6930542-0.5995407-1.2536697
		c0-0.5397263,0.2017441-0.9508133,0.5995407-1.2218628c0.3925705-0.2667847,0.9266052-0.4020691,1.5869064-0.4020691h5.4495087
		v3.2796707H106.2084732z"/>
</g>
</svg>
