<?xml version="1.0" encoding="utf-8"?>
<!-- Generator: Adobe Illustrator 18.0.0, SVG Export Plug-In . SVG Version: 6.00 Build 0)  -->
<!DOCTYPE svg PUBLIC "-//W3C//DTD SVG 1.1//EN" "http://www.w3.org/Graphics/SVG/1.1/DTD/svg11.dtd" [
	<!ENTITY ns_extend "http://ns.adobe.com/Extensibility/1.0/">
	<!ENTITY ns_ai "http://ns.adobe.com/AdobeIllustrator/10.0/">
	<!ENTITY ns_graphs "http://ns.adobe.com/Graphs/1.0/">
	<!ENTITY ns_vars "http://ns.adobe.com/Variables/1.0/">
	<!ENTITY ns_imrep "http://ns.adobe.com/ImageReplacement/1.0/">
	<!ENTITY ns_sfw "http://ns.adobe.com/SaveForWeb/1.0/">
	<!ENTITY ns_custom "http://ns.adobe.com/GenericCustomNamespace/1.0/">
	<!ENTITY ns_adobe_xpath "http://ns.adobe.com/XPath/1.0/">
]>
<svg version="1.1" id="Layer_1" xmlns:x="&ns_extend;" xmlns:i="&ns_ai;" xmlns:graph="&ns_graphs;"
	 xmlns="http://www.w3.org/2000/svg" xmlns:xlink="http://www.w3.org/1999/xlink" x="0px" y="0px"
	 viewBox="0 0 31.0997639 17.7437801" enable-background="new 0 0 31.0997639 17.7437801" xml:space="preserve">
<metadata>
	<sfw  xmlns="&ns_sfw;">
		<slices></slices>
		<sliceSourceBounds  height="17.7437801" width="31.0997639" x="166.0806122" y="-226.5493164" bottomLeftOrigin="true">
			</sliceSourceBounds>
	</sfw>
</metadata>
<g>
	<path fill="#656D7F" d="M30.9348221,16.0247459c-0.0376568-0.0811586-0.0727654-0.1484795-0.1053734-0.2024136
		c-0.5395775-0.9717989-1.5706997-2.1646109-3.0927391-3.5787802l-0.032156-0.0323849l-0.0161076-0.0158796l-0.0162754-0.0162764
		h-0.0163345c-0.6907787-0.6585083-1.1282158-1.1012764-1.3114014-1.3279638
		c-0.3351822-0.4318228-0.4102707-0.8689194-0.2270832-1.3118c0.1294212-0.3346138,0.6155758-1.0412741,1.4573269-2.1209416
		c0.4427681-0.5721898,0.7934322-1.0307808,1.0523891-1.3762836c1.8676567-2.4829485,2.6773643-4.0695853,2.4289551-4.7605343
		l-0.0964699-0.1614654c-0.0648251-0.0972085-0.232132-0.1861359-0.5016956-0.2672377
		c-0.2701836-0.0809313-0.6155205-0.0943154-1.036623-0.0403808l-4.663269,0.0322133
		c-0.0755444-0.0267691-0.1834145-0.0242733-0.3239517,0.0081667c-0.1403675,0.0324409-0.2105808,0.0487171-0.2105808,0.0487171
		l-0.0811577,0.0405505l-0.0644264,0.0487171c-0.0539932,0.0322133-0.1133728,0.0888712-0.178196,0.1698588
		c-0.0644836,0.0807046-0.1184216,0.1754172-0.1615219,0.2833444c-0.5077057,1.3061854-1.0849438,2.5206065-1.73279,3.6432085
		c-0.3994389,0.6693974-0.7662659,1.2495275-1.1012764,1.7407289c-0.3345566,0.4910321-0.6152363,0.8528118-0.841753,1.0847163
		c-0.2268581,0.232131-0.4315948,0.4180975-0.6154633,0.5585785c-0.1835842,0.1405373-0.3237247,0.1999168-0.420763,0.178196
		c-0.0972633-0.0217209-0.1888561-0.043273-0.2755737-0.0648251c-0.1510296-0.0972071-0.2725124-0.2294092-0.3641071-0.3967152
		c-0.0919914-0.1673079-0.1539211-0.3778868-0.186306-0.6315699c-0.0322132-0.2538524-0.0512695-0.4722028-0.056715-0.6557865
		c-0.0050468-0.1833572-0.0027218-0.4427114,0.0082245-0.7773247c0.0112286-0.334784,0.0162754-0.5613008,0.0162754-0.6800599
		c0-0.4102702,0.0079956-0.8555346,0.0240479-1.3359032c0.0163326-0.4803693,0.0295467-0.8609784,0.0406075-1.1413736
		c0.0110016-0.2806787,0.0161057-0.5776341,0.0161057-0.8906968s-0.0190544-0.5585783-0.0567131-0.7367742
		c-0.0372047-0.1779693-0.0943165-0.3507211-0.1695747-0.5181975c-0.0757141-0.1673068-0.186533-0.2967289-0.3319492-0.3886057
		c-0.1456985-0.0917638-0.3268433-0.1645847-0.5424137-0.2186902c-0.5721893-0.1294784-1.3007975-0.1995205-2.1861629-0.2104097
		c-2.00774-0.0215512-3.2978182,0.1080972-3.8699503,0.3887762c-0.2266865,0.1185896-0.4318228,0.2806222-0.6152363,0.4855874
		c-0.1943588,0.2375755-0.2214689,0.3672249-0.0811577,0.388549c0.64779,0.0970379,1.1063805,0.3291694,1.3762836,0.6961666
		l0.0972652,0.194473c0.0756569,0.140311,0.1511993,0.3887196,0.226799,0.7448847
		c0.0754871,0.3561652,0.1242046,0.7501593,0.1456423,1.1817546c0.0538778,0.7881575,0.0538778,1.4628296,0,2.0240731
		c-0.0540485,0.5614705-0.1050911,0.9985671-0.1538095,1.3116298c-0.0487165,0.3130627-0.1215391,0.5667448-0.2186327,0.7609925
		c-0.0972652,0.1943026-0.1619759,0.3130617-0.194416,0.3561649c-0.0323839,0.0431032-0.0593796,0.0702696-0.0808182,0.0809317
		c-0.1403112,0.0537643-0.2862368,0.0811577-0.4372673,0.0811577c-0.1512566,0-0.3346701-0.0756578-0.5505247-0.2268572
		c-0.2157974-0.1511993-0.4397621-0.3588877-0.6718931-0.6234026C9.7019835,7.5827775,9.4401903,7.213057,9.1486225,6.7381325
		C8.8572817,6.2632079,8.5549946,5.7019072,8.2419319,5.0542312l-0.2590137-0.469707
		C7.8209991,4.2823505,7.5998135,3.8423619,7.3191352,3.2649546c-0.280849-0.5776343-0.5290871-1.1363831-0.7448845-1.6761321
		C6.487988,1.3621361,6.3583961,1.1895548,6.1857014,1.0707947L6.1046567,1.0220776
		C6.0507784,0.9789751,5.9642892,0.9332063,5.845643,0.884432C5.7268267,0.8357149,5.6028495,0.8007782,5.4732008,0.7792836
		L1.0365044,0.8114969c-0.4533734,0-0.7609913,0.1027097-0.9229671,0.3078445L0.0487129,1.2163793
		c-0.0323817,0.0540488-0.0487154,0.140368-0.0487154,0.2591844c0,0.1187593,0.0323838,0.2645152,0.0972082,0.4370965
		C0.744882,3.4348695,1.449216,4.9029174,2.2102072,6.3170295s1.4222789,2.5532174,1.9834664,3.4162936
		c0.5613008,0.8637018,1.1334338,1.678854,1.7163992,2.4450636c0.5829654,0.7664938,0.9688487,1.2576942,1.1576505,1.4734917
		c0.1890287,0.2161951,0.3375063,0.3778296,0.4454331,0.4857569l0.4048834,0.3885498
		c0.2590699,0.2591276,0.6395097,0.5694685,1.1414866,0.9310217c0.5020914,0.3617802,1.0579481,0.7179451,1.6678524,1.0690632
		c0.6100178,0.3505516,1.3196831,0.6366177,2.1293917,0.8578606c0.8095951,0.221468,1.5975838,0.310339,2.3640766,0.2674637
		h1.862155c0.3776608-0.0326118,0.663784-0.151371,0.8582554-0.3563347l0.0644264-0.0811577
		c0.0433311-0.0644264,0.0838814-0.1645279,0.1213131-0.2992249c0.0378857-0.134922,0.056715-0.2835712,0.056715-0.4452629
		c-0.0110607-0.4640942,0.0242729-0.8823614,0.1050339-1.2547455c0.0807037-0.3722725,0.1726952-0.6529512,0.2755737-0.84198
		c0.1028233-0.188858,0.2188606-0.3482265,0.3479977-0.4774208c0.1294231-0.1294775,0.2216396-0.2079134,0.2757454-0.23491
		c0.0537643-0.0271664,0.0966969-0.0455971,0.1290817-0.0566568c0.2590694-0.086319,0.5639648-0.0027227,0.9151402,0.2511864
		c0.3508911,0.2536821,0.6800022,0.5669155,0.9878464,0.939187c0.3076744,0.372613,0.6773376,0.7906542,1.1090469,1.2547445
		c0.4319916,0.4642639,0.8097095,0.8093681,1.1334324,1.036396l0.3237247,0.1943016
		c0.2161961,0.1296501,0.4968739,0.2484093,0.8423767,0.3563347c0.3448792,0.107872,0.6470528,0.1348667,0.9065208,0.0809326
		l4.1450729-0.0646553c0.4099865,0,0.7290039-0.0678864,0.9552937-0.2025833
		c0.2267418-0.134922,0.3614388-0.2835712,0.4048805-0.4452629c0.0433292-0.1618633,0.0456543-0.3455048,0.0082245-0.5508099
		C31.0103092,16.2488804,30.9724808,16.1056767,30.9348221,16.0247459z"/>
</g>
</svg>
